<svg width="68" height="54" viewBox="0 0 68 54" fill="none" xmlns="http://www.w3.org/2000/svg">
<path id="&#226;&#128;&#156;" d="M65.3116 0.131348V4.01907C59.8295 6.02905 55.5333 9.20271 52.4233 13.54C49.3132 17.8245 47.7581 22.294 47.7581 26.9487C47.7581 27.9537 47.9163 28.6942 48.2326 29.1703C48.4434 29.4876 48.6806 29.6463 48.9442 29.6463C49.2078 29.6463 49.6031 29.4612 50.1302 29.0909C51.8171 27.8744 53.9519 27.2661 56.5349 27.2661C59.5395 27.2661 62.2016 28.5091 64.5209 30.9951C66.8403 33.4283 68 36.3374 68 39.7227C68 43.2666 66.6558 46.3873 63.9674 49.0849C61.3318 51.7825 58.1163 53.1313 54.3209 53.1313C49.893 53.1313 46.0713 51.3065 42.8558 47.6568C39.6403 44.0071 38.0326 39.1144 38.0326 32.9787C38.0326 25.8379 40.2202 19.4377 44.5953 13.7781C48.9705 8.11837 55.876 3.56947 65.3116 0.131348ZM27.2791 0.131348V4.01907C21.7969 6.02905 17.5008 9.20271 14.3907 13.54C11.2806 17.8245 9.72558 22.294 9.72558 26.9487C9.72558 27.9537 9.88372 28.6942 10.2 29.1703C10.4109 29.4876 10.6481 29.6463 10.9116 29.6463C11.1752 29.6463 11.5705 29.4612 12.0977 29.0909C13.7845 27.8744 15.9194 27.2661 18.5023 27.2661C21.507 27.2661 24.169 28.5091 26.4884 30.9951C28.8078 33.4283 29.9674 36.3374 29.9674 39.7227C29.9674 43.2666 28.6233 46.3873 25.9349 49.0849C23.2992 51.7825 20.0837 53.1313 16.2884 53.1313C11.8605 53.1313 8.03876 51.3065 4.82326 47.6568C1.60775 44.0071 0 39.1144 0 32.9787C0 25.8379 2.1876 19.4377 6.56279 13.7781C10.938 8.11837 17.8434 3.56947 27.2791 0.131348Z" fill="#363848"/>
</svg>
